<svg width="160" height="32" viewBox="0 0 160 32" fill="none" xmlns="http://www.w3.org/2000/svg">
<path d="M15.9997 22.6668L8.16258 27.4538L10.2934 18.521L3.31897 12.5466L12.473 11.8127L15.9997 3.3335L19.5265 11.8127L28.6805 12.5466L21.7061 18.521L23.8369 27.4538L15.9997 22.6668Z" fill="#FFAE00"/>
<path d="M79.9997 22.6668L72.1626 27.4538L74.2934 18.521L67.319 12.5466L76.473 11.8127L79.9997 3.3335L83.5265 11.8127L92.6805 12.5466L85.7061 18.521L87.8369 27.4538L79.9997 22.6668Z" fill="#FFAE00"/>
<path d="M47.9997 22.6668L40.1626 27.4538L42.2934 18.521L35.319 12.5466L44.473 11.8127L47.9997 3.3335L51.5265 11.8127L60.6805 12.5466L53.7061 18.521L55.8369 27.4538L47.9997 22.6668Z" fill="#FFAE00"/>
<path d="M112 22.6668L104.163 27.4538L106.293 18.521L99.319 12.5466L108.473 11.8127L112 3.3335L115.526 11.8127L124.68 12.5466L117.706 18.521L119.837 27.4538L112 22.6668Z" fill="#FFAE00"/>
<path d="M144 22.6668L136.163 27.4538L138.293 18.521L131.319 12.5466L140.473 11.8127L144 3.3335L147.526 11.8127L156.68 12.5466L149.706 18.521L151.837 27.4538L144 22.6668Z" fill="#FFAE00"/>
</svg>
