<svg width="32" height="32" viewBox="0 0 32 32" fill="none" xmlns="http://www.w3.org/2000/svg">
<path d="M14.6666 2.6665C21.2906 2.6665 26.6666 8.0425 26.6666 14.6665C26.6666 21.2905 21.2906 26.6665 14.6666 26.6665C8.04263 26.6665 2.66663 21.2905 2.66663 14.6665C2.66663 8.0425 8.04263 2.6665 14.6666 2.6665ZM14.6666 23.9998C19.8233 23.9998 24 19.8232 24 14.6665C24 9.50984 19.8233 5.33317 14.6666 5.33317C9.50996 5.33317 5.33329 9.50984 5.33329 14.6665C5.33329 19.8232 9.50996 23.9998 14.6666 23.9998ZM25.9804 24.0946L29.7516 27.8658L27.866 29.7514L24.0948 25.9802L25.9804 24.0946Z" fill="black"/>
</svg>
