<svg width="48" height="48" viewBox="0 0 48 48" fill="none" xmlns="http://www.w3.org/2000/svg">
<path d="M41.21 19L40.09 17C39.7637 16.3978 39.2815 15.8945 38.6939 15.5426C38.1063 15.1907 37.4349 15.0033 36.75 15H28C28 13.9391 27.5786 12.9217 26.8284 12.1716C26.0783 11.4214 25.0609 11 24 11H8C6.93913 11 5.92172 11.4214 5.17157 12.1716C4.42143 12.9217 4 13.9391 4 15V30C4 31.0609 4.42143 32.0783 5.17157 32.8284C5.92172 33.5786 6.93913 34 8 34H8.1C8.32952 35.1303 8.94273 36.1465 9.83574 36.8764C10.7288 37.6063 11.8466 38.005 13 38.005C14.1534 38.005 15.2712 37.6063 16.1643 36.8764C17.0573 36.1465 17.6705 35.1303 17.9 34H30.1C30.3295 35.1303 30.9427 36.1465 31.8357 36.8764C32.7288 37.6063 33.8466 38.005 35 38.005C36.1534 38.005 37.2712 37.6063 38.1643 36.8764C39.0573 36.1465 39.6705 35.1303 39.9 34H40.18C41.1931 34 42.1648 33.5975 42.8811 32.8811C43.5975 32.1648 44 31.1931 44 30.18V25C44.0034 24.3521 43.838 23.7145 43.52 23.15L41.21 19ZM40 21L41.1 23L41.66 24H35C34.7348 24 34.4804 23.8946 34.2929 23.7071C34.1054 23.5196 34 23.2652 34 23V22C34 21.7348 34.1054 21.4804 34.2929 21.2929C34.4804 21.1054 34.7348 21 35 21H40ZM13 36C12.3013 35.9979 11.6253 35.752 11.0886 35.3047C10.5519 34.8574 10.1881 34.2368 10.06 33.55C10.0198 33.3694 9.99967 33.185 10 33C10 32.2044 10.3161 31.4413 10.8787 30.8787C11.4413 30.3161 12.2044 30 13 30C13.7956 30 14.5587 30.3161 15.1213 30.8787C15.6839 31.4413 16 32.2044 16 33C16.0003 33.185 15.9802 33.3694 15.94 33.55C15.8119 34.2368 15.4481 34.8574 14.9114 35.3047C14.3747 35.752 13.6987 35.9979 13 36ZM17.9 32V31.91C17.8412 31.6407 17.761 31.3765 17.66 31.12L17.5 30.8C17.4254 30.6338 17.3385 30.4733 17.24 30.32L17 30C16.9018 29.8665 16.7949 29.7395 16.68 29.62C16.591 29.516 16.494 29.419 16.39 29.33L16 29C15.8907 28.9176 15.7772 28.8408 15.66 28.77L15.2 28.52L14.85 28.36C14.664 28.2881 14.4736 28.228 14.28 28.18L14 28.1C13.3737 27.9666 12.7263 27.9666 12.1 28.1L11.79 28.18C11.5964 28.228 11.406 28.2881 11.22 28.36L10.87 28.52L10.41 28.77C10.2689 28.8386 10.132 28.9154 10 29L9.62 29.32C9.51599 29.409 9.41903 29.506 9.33 29.61C9.21135 29.7324 9.1011 29.8627 9 30C8.92 30.11 8.84 30.21 8.76 30.33C8.66154 30.4833 8.57463 30.6438 8.5 30.81C8.5 30.92 8.39 31.02 8.34 31.13C8.23903 31.3865 8.15877 31.6507 8.1 31.92V32.01H8C7.46957 32.01 6.96086 31.7993 6.58579 31.4242C6.21071 31.0491 6 30.5404 6 30.01V15C6 14.4696 6.21071 13.9609 6.58579 13.5858C6.96086 13.2107 7.46957 13 8 13H24C24.5304 13 25.0391 13.2107 25.4142 13.5858C25.7893 13.9609 26 14.4696 26 15V24H11C10.7348 24 10.4804 24.1054 10.2929 24.2929C10.1054 24.4804 10 24.7348 10 25C10 25.2652 10.1054 25.5196 10.2929 25.7071C10.4804 25.8946 10.7348 26 11 26H26V32H17.9ZM35 36C34.3013 35.9979 33.6253 35.752 33.0886 35.3047C32.5519 34.8574 32.1881 34.2368 32.06 33.55C32.0198 33.3694 31.9997 33.185 32 33C32 32.2044 32.3161 31.4413 32.8787 30.8787C33.4413 30.3161 34.2044 30 35 30C35.7956 30 36.5587 30.3161 37.1213 30.8787C37.6839 31.4413 38 32.2044 38 33C38.0003 33.185 37.9802 33.3694 37.94 33.55C37.8119 34.2368 37.4481 34.8574 36.9114 35.3047C36.3747 35.752 35.6987 35.9979 35 36ZM42 30.18C41.9974 30.6619 41.8048 31.1233 41.464 31.464C41.1233 31.8048 40.6619 31.9974 40.18 32H39.9V31.91C39.8412 31.6407 39.761 31.3765 39.66 31.12L39.5 30.8C39.4254 30.6338 39.3385 30.4733 39.24 30.32C39.16 30.2 39.08 30.1 39 29.99C38.9018 29.8565 38.7949 29.7295 38.68 29.61C38.591 29.506 38.494 29.409 38.39 29.32L38 29C37.8907 28.9176 37.7772 28.8408 37.66 28.77L37.2 28.52L36.85 28.36C36.664 28.2881 36.4736 28.228 36.28 28.18L36 28.1C35.3737 27.9666 34.7263 27.9666 34.1 28.1L33.79 28.18C33.5964 28.228 33.406 28.2881 33.22 28.36L32.87 28.52L32.41 28.77C32.2689 28.8386 32.132 28.9154 32 29L31.62 29.32C31.516 29.409 31.419 29.506 31.33 29.61C31.2114 29.7324 31.1011 29.8627 31 30L30.76 30.33C30.6615 30.4833 30.5746 30.6438 30.5 30.81L30.34 31.13C30.239 31.3865 30.1588 31.6507 30.1 31.92V32.01H28V17H36.75C37.0748 17.0006 37.3935 17.088 37.6731 17.2533C37.9527 17.4186 38.183 17.6557 38.34 17.94L38.93 19H35C34.2044 19 33.4413 19.3161 32.8787 19.8787C32.3161 20.4413 32 21.2044 32 22V23C32 23.7956 32.3161 24.5587 32.8787 25.1213C33.4413 25.6839 34.2044 26 35 26H42V30.18Z" fill="#014D49"/>
</svg>
