<svg width="40" height="40" viewBox="0 0 40 40" fill="none" xmlns="http://www.w3.org/2000/svg">
<rect width="40" height="40" rx="20" fill="#F0FBFF"/>
<path d="M29.9866 13.2274H29.896V13.0675C29.896 12.521 29.6916 11.9967 29.3275 11.6093C28.9634 11.2219 28.4692 11.0028 27.953 11H9.95302C9.43505 11 8.93829 11.2178 8.57203 11.6056C8.20576 11.9933 8 12.5192 8 13.0675V24.7052C8 24.9767 8.05052 25.2455 8.14866 25.4963C8.24681 25.7472 8.39067 25.9751 8.57203 26.1671C8.75338 26.3591 8.96868 26.5114 9.20563 26.6153C9.44258 26.7192 9.69655 26.7726 9.95302 26.7726H10.104V26.8686C10.104 27.4339 10.3162 27.976 10.6937 28.3757C11.0713 28.7754 11.5835 29 12.1174 29H29.9866C30.5206 29 31.0327 28.7754 31.4103 28.3757C31.7879 27.976 32 27.4339 32 26.8686V15.3588C32 14.7935 31.7879 14.2514 31.4103 13.8516C31.0327 13.4519 30.5206 13.2274 29.9866 13.2274ZM9.00671 14.7087H28.8993V16.9041H9.00671V14.7087ZM9.95302 12.0657H27.953C28.204 12.0657 28.4447 12.1713 28.6222 12.3591C28.7996 12.547 28.8993 12.8018 28.8993 13.0675V13.643H9.00671V13.0675C9.00671 12.8018 9.10641 12.547 9.28388 12.3591C9.46135 12.1713 9.70204 12.0657 9.95302 12.0657ZM9.00671 24.7052V17.9698H28.8993V24.7052C28.8993 24.9708 28.7996 25.2256 28.6222 25.4135C28.4447 25.6014 28.204 25.7069 27.953 25.7069H9.95302C9.70204 25.7069 9.46135 25.6014 9.28388 25.4135C9.10641 25.2256 9.00671 24.9708 9.00671 24.7052ZM30.9933 26.8366C30.9933 27.1192 30.8872 27.3903 30.6984 27.5902C30.5096 27.79 30.2536 27.9023 29.9866 27.9023H12.1174C11.8505 27.9023 11.5944 27.79 11.4056 27.5902C11.2168 27.3903 11.1107 27.1192 11.1107 26.8366V26.7726H27.953C28.2095 26.7726 28.4635 26.7192 28.7004 26.6153C28.9374 26.5114 29.1527 26.3591 29.334 26.1671C29.5154 25.9751 29.6592 25.7472 29.7574 25.4963C29.8555 25.2455 29.906 24.9767 29.906 24.7052V14.2931H29.9966C30.2636 14.2931 30.5197 14.4054 30.7085 14.6052C30.8973 14.8051 31.0034 15.0761 31.0034 15.3588L30.9933 26.8366Z" fill="#004F4F"/>
<path d="M23.2114 24.3426C23.4551 24.3489 23.6975 24.3031 23.9241 24.2079C24.1507 24.1127 24.3569 23.97 24.5302 23.7885C24.7803 24.0701 25.1046 24.2656 25.461 24.3497C25.8174 24.4338 26.1895 24.4026 26.5289 24.2602C26.8684 24.1178 27.1596 23.8707 27.3648 23.5509C27.57 23.2312 27.6797 22.8535 27.6797 22.467C27.6797 22.0804 27.57 21.7028 27.3648 21.383C27.1596 21.0633 26.8684 20.8162 26.5289 20.6737C26.1895 20.5313 25.8174 20.5001 25.461 20.5843C25.1046 20.6684 24.7803 20.8639 24.5302 21.1455C24.3277 20.906 24.0717 20.7242 23.7856 20.6167C23.4994 20.5093 23.1924 20.4797 22.8927 20.5306C22.5929 20.5815 22.31 20.7113 22.07 20.9081C21.83 21.105 21.6406 21.3625 21.5191 21.657C21.3976 21.9515 21.348 22.2736 21.3747 22.5938C21.4015 22.9139 21.5038 23.2218 21.6723 23.4891C21.8407 23.7565 22.07 23.9748 22.3389 24.1239C22.6078 24.273 22.9078 24.3483 23.2114 24.3426ZM25.8389 21.5611C26.0002 21.5611 26.1578 21.6117 26.2919 21.7066C26.426 21.8015 26.5305 21.9363 26.5922 22.094C26.654 22.2517 26.6701 22.4253 26.6386 22.5928C26.6072 22.7602 26.5295 22.914 26.4155 23.0347C26.3014 23.1555 26.1561 23.2377 25.998 23.271C25.8398 23.3043 25.6758 23.2872 25.5268 23.2219C25.3778 23.1565 25.2505 23.0459 25.1609 22.9039C25.0713 22.762 25.0234 22.5951 25.0234 22.4244C25.0234 22.1954 25.1094 21.9758 25.2623 21.814C25.4152 21.6521 25.6226 21.5611 25.8389 21.5611ZM23.2114 21.5611C23.3726 21.5611 23.5303 21.6117 23.6644 21.7066C23.7985 21.8015 23.903 21.9363 23.9647 22.094C24.0264 22.2517 24.0426 22.4253 24.0111 22.5928C23.9797 22.7602 23.902 22.914 23.788 23.0347C23.6739 23.1555 23.5286 23.2377 23.3704 23.271C23.2123 23.3043 23.0483 23.2872 22.8993 23.2219C22.7503 23.1565 22.623 23.0459 22.5334 22.9039C22.4438 22.762 22.3959 22.5951 22.3959 22.4244C22.3959 22.1954 22.4818 21.9758 22.6348 21.814C22.7877 21.6521 22.9951 21.5611 23.2114 21.5611Z" fill="#004F4F"/>
</svg>
