<svg width="48" height="48" viewBox="0 0 48 48" fill="none" xmlns="http://www.w3.org/2000/svg">
<path d="M24 7.43522L29.5725 10.6293C30.06 10.2037 30.6038 9.76397 31.1738 9.34585L24.4754 5.50679C24.3305 5.42426 24.1667 5.38086 24 5.38086C23.8334 5.38086 23.6695 5.42426 23.5247 5.50679L16.8263 9.34491C17.4 9.76397 17.941 10.2037 18.4285 10.6283L24 7.43522Z" fill="#014D49"/>
<path d="M45.2813 17.8603C45.2813 17.8434 45.2747 17.8266 45.2709 17.8106C45.2672 17.7947 45.2625 17.7609 45.2559 17.7375C45.2495 17.7139 45.2417 17.6908 45.2325 17.6681C45.2269 17.6522 45.2231 17.6353 45.2166 17.6203C45.21 17.6053 45.1922 17.5706 45.18 17.5463C45.1678 17.5219 45.1688 17.5209 45.1613 17.5097C45.146 17.4833 45.1291 17.458 45.1106 17.4338C45.1052 17.4243 45.0993 17.4153 45.0928 17.4066C45.0722 17.3797 45.0499 17.354 45.0263 17.3297C45.0206 17.3241 45.0169 17.3184 45.0113 17.3137C44.9841 17.2864 44.9553 17.2608 44.925 17.2369L44.9184 17.2313C44.8841 17.2041 44.8478 17.1796 44.8097 17.1581L40.0547 14.4375C39.9957 15.1172 39.8895 15.7919 39.7369 16.4569L42.4116 17.9888L36.5006 21.375L38.1403 22.6369L43.3772 19.6369V29.46L24.9544 40.0162V30.1875L30.6563 26.9231L29.4956 25.3875L24 28.5375L18.5044 25.3875L17.3438 26.9231L23.0456 30.1875V40.0125L4.62282 29.46V19.6341L9.8597 22.6341L11.4994 21.375L5.59314 17.9878L8.26689 16.4559C8.11347 15.7913 8.00603 15.1169 7.94532 14.4375L3.19314 17.1562C3.15504 17.1778 3.11868 17.2022 3.08439 17.2294L3.07782 17.235C3.04757 17.2589 3.01877 17.2846 2.99157 17.3119C2.98595 17.3119 2.9822 17.3222 2.97657 17.3278C2.95291 17.3521 2.93068 17.3778 2.91001 17.4047C2.90354 17.4134 2.89759 17.4225 2.8922 17.4319C2.87372 17.4561 2.85681 17.4814 2.84157 17.5078C2.83407 17.5191 2.82939 17.5322 2.82282 17.5444C2.81626 17.5566 2.79751 17.5931 2.78626 17.6184C2.77501 17.6437 2.77595 17.6503 2.77032 17.6663C2.76111 17.6889 2.75329 17.712 2.74689 17.7356C2.74032 17.7591 2.73657 17.7844 2.73189 17.8088C2.7272 17.8331 2.72439 17.8416 2.72157 17.8584C2.71591 17.9004 2.71309 17.9427 2.71314 17.985V30.0131C2.71298 30.1816 2.75728 30.3471 2.84156 30.4929C2.92584 30.6388 3.04712 30.7598 3.19314 30.8438L23.5247 42.4931C23.5795 42.5217 23.637 42.5449 23.6963 42.5625C23.7159 42.57 23.7347 42.5813 23.7553 42.5869C23.9157 42.6294 24.0843 42.6294 24.2447 42.5869C24.2653 42.5813 24.2841 42.57 24.3038 42.5625C24.363 42.5449 24.4205 42.5217 24.4753 42.4931L44.8069 30.8438C44.9526 30.7599 45.0737 30.6392 45.158 30.4937C45.2422 30.3482 45.2867 30.1831 45.2869 30.015V17.9869C45.2879 17.9446 45.286 17.9023 45.2813 17.8603Z" fill="#014D49"/>
<path d="M28.9688 14.6811V16.9564C28.9688 17.0249 28.9632 17.0924 28.9585 17.1608C31.3669 18.2267 35.3897 19.7136 37.036 19.0639C38.0785 18.6552 39.1294 14.9867 38.7778 11.7964C38.6747 10.8674 38.281 8.68299 36.8485 8.45986C34.2422 8.05205 30.4266 11.4017 28.6266 13.2871C28.8514 13.7174 28.9688 14.1956 28.9688 14.6811Z" fill="#014D49"/>
<path d="M10.9687 19.0642C12.6131 19.7082 16.6368 18.2251 19.0462 17.1601C19.0415 17.0926 19.0359 17.0251 19.0359 16.9567V14.6813C19.0362 14.1963 19.1532 13.7185 19.3772 13.2882C18.7046 12.5879 17.9945 11.9248 17.25 11.3017C16.9912 11.0842 16.7222 10.8676 16.4475 10.6567C16.1718 10.4457 15.8906 10.2404 15.6037 10.0454C14.2556 9.12384 12.824 8.42728 11.5987 8.42728C11.4481 8.42658 11.2976 8.43786 11.1487 8.46103C9.71622 8.68415 9.32247 10.8685 9.21934 11.7976C8.87153 14.987 9.92247 18.6563 10.9687 19.0642Z" fill="#014D49"/>
<path d="M27.6947 16.9565V14.6812C27.6939 14.2121 27.5072 13.7624 27.1754 13.4307C26.8436 13.0991 26.3938 12.9126 25.9247 12.9121H22.0753C21.6062 12.9126 21.1564 13.0991 20.8246 13.4307C20.4928 13.7624 20.306 14.2121 20.3053 14.6812V16.9565C20.3058 17.4258 20.4924 17.8757 20.8243 18.2075C21.1561 18.5393 21.606 18.726 22.0753 18.7265H25.9247C26.394 18.726 26.8439 18.5393 27.1757 18.2075C27.5075 17.8757 27.6942 17.4258 27.6947 16.9565Z" fill="#014D49"/>
<path d="M19.396 18.3975C18.1597 18.9471 16.8922 19.4235 15.6 19.8243L10.6031 23.6681L13.3069 24.3103C13.4143 24.3356 13.5133 24.3886 13.594 24.4639C13.6748 24.5392 13.7345 24.6342 13.7672 24.7396L14.8285 28.1353L21.1097 19.8375C20.377 19.5914 19.7646 19.0769 19.396 18.3975Z" fill="#014D49"/>
<path d="M28.604 18.3975C28.2365 19.0765 27.6256 19.5913 26.894 19.8384L33.1753 28.1362L34.2365 24.7406C34.2693 24.6352 34.329 24.5401 34.4097 24.4648C34.4904 24.3895 34.5894 24.3366 34.6969 24.3112L37.4006 23.669L32.4047 19.8253C31.1107 19.4247 29.8416 18.948 28.604 18.3975Z" fill="#014D49"/>
</svg>
