<svg width="40" height="40" viewBox="0 0 40 40" fill="none" xmlns="http://www.w3.org/2000/svg">
<rect width="40" height="40" rx="20" fill="#F1FFEF"/>
<path d="M27.4335 22.7625C25.8024 22.7625 24.4557 24.0017 24.2841 25.5879H19.0078V22.6802L23.5784 15.7029C23.7307 15.499 23.8706 15.2853 23.9973 15.0632L24.0794 14.9381L24.0701 14.932C24.5392 14.0614 24.8057 13.0662 24.8057 12.0098V7.30029H22.2833V8.14598H23.96V12.0098C23.96 12.9643 23.7069 13.8603 23.266 14.6364L22.8864 15.2159C21.9117 16.5085 20.364 17.3459 18.6241 17.3459C16.9718 17.3459 15.4927 16.5909 14.5132 15.408L13.9018 14.4748L13.8959 14.4787C13.5085 13.7399 13.2881 12.9004 13.2881 12.01V8.14598H14.9251V7.30029H12.4424V12.0098C12.4424 13.4852 12.9622 14.8412 13.8279 15.905L18.1621 22.5215V25.5879H13.9109C11.7544 25.5879 10 27.3423 10 29.4988C10 31.6553 11.7544 33.4097 13.9109 33.4097H15.0969C17.2534 33.4097 19.0079 31.6553 19.0079 29.4988V26.4336H24.3056C24.5473 27.9425 25.8576 29.0992 27.4336 29.0992C29.1806 29.0992 30.602 27.6779 30.602 25.9308C30.6019 24.1839 29.1805 22.7625 27.4335 22.7625ZM18.1621 29.4988C18.1621 31.1889 16.787 32.564 15.0969 32.564H13.9108C12.2206 32.564 10.8456 31.1889 10.8456 29.4988C10.8456 27.8087 12.2206 26.4336 13.9108 26.4336H18.162L18.1621 29.4988ZM18.637 21.703L15.932 17.5737C16.7462 17.9693 17.6597 18.1915 18.6241 18.1915C19.6036 18.1915 20.5305 17.9621 21.3544 17.5548L18.637 21.703ZM27.4335 28.2535C26.1528 28.2535 25.1109 27.2115 25.1109 25.9308C25.1109 24.6501 26.1528 23.6082 27.4335 23.6082C28.7143 23.6082 29.7562 24.6501 29.7562 25.9308C29.7562 27.2115 28.7143 28.2535 27.4335 28.2535Z" fill="#004F4F" stroke="#004F4F" stroke-width="0.2"/>
<path d="M15.0253 13.5987C15.0253 14.7945 16.0514 15.7673 17.3128 15.7673H20.0288C21.2901 15.7673 22.3163 14.7944 22.3163 13.5987C22.3163 12.7852 21.8403 12.0465 21.0742 11.6711C20.7265 11.5007 20.413 11.2389 20.1676 10.9141C19.8102 10.4411 19.2332 10.1587 18.6241 10.1587C17.9931 10.1587 17.4045 10.4569 17.0493 10.9566C16.8357 11.2572 16.5299 11.5226 16.1652 11.7243C15.4621 12.1131 15.0253 12.8313 15.0253 13.5987ZM16.5744 12.4644C17.0562 12.198 17.4479 11.8556 17.7386 11.4467C17.9355 11.1697 18.2666 11.0044 18.6241 11.0044C18.9697 11.0044 19.2945 11.1612 19.4929 11.4239C19.8178 11.854 20.2359 12.2021 20.7021 12.4305C21.1762 12.6628 21.4706 13.1104 21.4706 13.5987C21.4706 14.3282 20.8238 14.9216 20.0288 14.9216H17.3128C16.5178 14.9216 15.871 14.3281 15.871 13.5987C15.871 13.1389 16.1405 12.7043 16.5744 12.4644Z" fill="#004F4F"/>
<path d="M14.9916 8.72217C14.4061 8.72217 13.9298 9.1985 13.9298 9.78399V10.5376C13.9298 11.1232 14.4061 11.5995 14.9916 11.5995C15.5771 11.5995 16.0535 11.1231 16.0535 10.5376V9.78399C16.0535 9.1985 15.5771 8.72217 14.9916 8.72217ZM15.2078 10.5376C15.2078 10.6548 15.1088 10.7538 14.9916 10.7538C14.8745 10.7538 14.7755 10.6548 14.7755 10.5376V9.78399C14.7755 9.6668 14.8745 9.56785 14.9916 9.56785C15.1088 9.56785 15.2078 9.6668 15.2078 9.78399V10.5376Z" fill="#004F4F"/>
<path d="M17.3117 9.8773C17.8972 9.8773 18.3735 9.40097 18.3735 8.81547V8.06183C18.3735 7.47626 17.8972 7 17.3117 7C16.7262 7 16.2499 7.47633 16.2499 8.06183V8.81547C16.2499 9.40097 16.7262 9.8773 17.3117 9.8773ZM17.0956 8.06176C17.0956 7.94456 17.1946 7.84561 17.3117 7.84561C17.4288 7.84561 17.5278 7.94456 17.5278 8.06176V8.8154C17.5278 8.9326 17.4288 9.03154 17.3117 9.03154C17.1946 9.03154 17.0956 8.9326 17.0956 8.8154V8.06176Z" fill="#004F4F"/>
<path d="M19.9966 9.8773C20.5821 9.8773 21.0585 9.40097 21.0585 8.81547V8.06183C21.0585 7.47626 20.5821 7 19.9966 7C19.4111 7 18.9348 7.47633 18.9348 8.06183V8.81547C18.9348 9.40097 19.4111 9.8773 19.9966 9.8773ZM19.7805 8.06176C19.7805 7.94456 19.8795 7.84561 19.9966 7.84561C20.1138 7.84561 20.2128 7.94456 20.2128 8.06176V8.8154C20.2128 8.9326 20.1138 9.03154 19.9966 9.03154C19.8795 9.03154 19.7805 8.9326 19.7805 8.8154V8.06176Z" fill="#004F4F"/>
<path d="M22.309 11.5995C22.8945 11.5995 23.3708 11.1231 23.3708 10.5376V9.78399C23.3708 9.19843 22.8944 8.72217 22.309 8.72217C21.7235 8.72217 21.2472 9.1985 21.2472 9.78399V10.5376C21.2472 11.1231 21.7235 11.5995 22.309 11.5995ZM22.0929 9.78392C22.0929 9.66673 22.1918 9.56778 22.309 9.56778C22.4261 9.56778 22.5252 9.66673 22.5252 9.78392V10.5376C22.5252 10.6548 22.4261 10.7537 22.309 10.7537C22.1918 10.7537 22.0929 10.6548 22.0929 10.5376V9.78392Z" fill="#004F4F"/>
</svg>
