<svg width="40" height="40" viewBox="0 0 40 40" fill="none" xmlns="http://www.w3.org/2000/svg">
<rect width="40" height="40" rx="20" fill="#FFFCEB"/>
<path d="M20.0001 17.5864V12.7588" stroke="#004F4F" stroke-linecap="round" stroke-linejoin="round"/>
<path d="M19.0345 13.7243L20.0001 12.7588" stroke="#004F4F" stroke-linecap="round" stroke-linejoin="round"/>
<path d="M20.5118 6.17386L22.2884 7.53526C22.4477 7.65936 22.6468 7.72115 22.8484 7.70905L25.1174 7.60285C25.3019 7.59215 25.4847 7.64332 25.6369 7.74825C25.789 7.85318 25.9018 8.00588 25.9574 8.18216L26.5464 10.287C26.6038 10.4727 26.7275 10.6308 26.894 10.7312L28.825 11.9284C28.9891 12.0204 29.1123 12.1712 29.1696 12.3503C29.2269 12.5295 29.2142 12.7238 29.134 12.8939L28.3036 14.8926C28.2363 15.0732 28.2363 15.272 28.3036 15.4526L29.1147 17.4899C29.1949 17.66 29.2076 17.8543 29.1503 18.0334C29.0929 18.2126 28.9698 18.3634 28.8057 18.4554L26.8747 19.6526C26.7082 19.753 26.5845 19.9111 26.5271 20.0968L25.9381 22.2016C25.8825 22.3779 25.7697 22.5306 25.6176 22.6355C25.4654 22.7405 25.2826 22.7916 25.0981 22.7809L22.8967 22.6361C22.6951 22.624 22.496 22.6858 22.3367 22.8099L20.5601 24.1713C20.4133 24.284 20.2334 24.3452 20.0484 24.3452C19.8633 24.3452 19.6834 24.284 19.5366 24.1713L17.7601 22.8099C17.6008 22.6858 17.4017 22.624 17.2001 22.6361L14.9311 22.7423C14.7466 22.753 14.5637 22.7019 14.4116 22.5969C14.2594 22.492 14.1466 22.3393 14.0911 22.163L13.5021 20.0582C13.4447 19.8725 13.321 19.7144 13.1545 19.614L11.2235 18.4168C11.0577 18.3264 10.9325 18.1763 10.8733 17.997C10.8141 17.8177 10.8254 17.6225 10.9048 17.4512L11.7159 15.414C11.7832 15.2334 11.7832 15.0346 11.7159 14.854L10.8855 12.8553C10.8061 12.684 10.7948 12.4889 10.854 12.3096C10.9132 12.1303 11.0383 11.9802 11.2041 11.8898L13.1352 10.6925C13.3016 10.5922 13.4254 10.4341 13.4828 10.2484L14.0718 8.14354C14.1273 7.96726 14.2401 7.81456 14.3923 7.70963C14.5444 7.60469 14.7272 7.55352 14.9118 7.56422L17.1808 7.67043C17.3823 7.68253 17.5814 7.62074 17.7408 7.49664L19.4884 6.17386C19.6351 6.06112 19.815 6 20.0001 6C20.1852 6 20.3651 6.06112 20.5118 6.17386Z" stroke="#004F4F" stroke-linecap="round" stroke-linejoin="round"/>
<path d="M20.0001 19.5169C22.3998 19.5169 24.345 17.5716 24.345 15.172C24.345 12.7724 22.3998 10.8271 20.0001 10.8271C17.6005 10.8271 15.6553 12.7724 15.6553 15.172C15.6553 17.5716 17.6005 19.5169 20.0001 19.5169Z" stroke="#004F4F" stroke-linecap="round" stroke-linejoin="round"/>
<path d="M34.0002 30.138L26.5657 20" stroke="#004F4F" stroke-linecap="round" stroke-linejoin="round"/>
<path d="M34.0001 30.1379L27.2415 29.1724" stroke="#004F4F" stroke-linecap="round" stroke-linejoin="round"/>
<path d="M24.345 34L27.2416 29.1724" stroke="#004F4F" stroke-linecap="round" stroke-linejoin="round"/>
<path d="M24.345 33.9995L21.8926 23.1855" stroke="#004F4F" stroke-linecap="round" stroke-linejoin="round"/>
<path d="M6 30.138L13.4346 20" stroke="#004F4F" stroke-linecap="round" stroke-linejoin="round"/>
<path d="M6 30.1379L12.7587 29.1724" stroke="#004F4F" stroke-linecap="round" stroke-linejoin="round"/>
<path d="M15.6551 34L12.7585 29.1724" stroke="#004F4F" stroke-linecap="round" stroke-linejoin="round"/>
<path d="M15.6553 33.9995L18.1077 23.1855" stroke="#004F4F" stroke-linecap="round" stroke-linejoin="round"/>
</svg>
