<svg width="200" height="200" viewBox="0 0 200 200" fill="none" xmlns="http://www.w3.org/2000/svg">
<circle cx="100" cy="100" r="96" fill="#B3E3E3"/>
<circle cx="100" cy="100" r="96" fill="#EEFFFF"/>
<circle cx="100" cy="100" r="84" fill="#E1F7F7"/>
<circle cx="100" cy="100" r="84" fill="#DBFEFE"/>
<circle cx="100" cy="100" r="71" fill="#004F4F"/>
<path d="M82.8889 70H117.111C118.09 70 119.012 70.452 119.6 71.22L128 82.2V127.95C128 129.635 126.607 131 124.889 131H75.1111C73.3929 131 72 129.635 72 127.95V82.2L80.4 71.22C80.9876 70.452 81.9097 70 82.8889 70ZM121.778 88.3H78.2222V124.9H121.778V88.3ZM120.222 82.2L115.556 76.1H84.4444L79.7778 82.2H120.222ZM90.6666 94.4V100.5C90.6666 105.554 94.8452 109.65 100 109.65C105.155 109.65 109.333 105.554 109.333 100.5V94.4H115.556V100.5C115.556 108.922 108.591 115.75 100 115.75C91.4089 115.75 84.4444 108.922 84.4444 100.5V94.4H90.6666Z" fill="white"/>
<circle cx="130" cy="77" r="20" fill="#FFAE00"/>
<path d="M129.64 84.2C128.533 84.2 127.533 83.9 126.64 83.3C125.747 82.7 125.033 81.8533 124.5 80.76C123.98 79.6667 123.72 78.3933 123.72 76.94C123.72 75.4867 123.98 74.22 124.5 73.14C125.02 72.06 125.72 71.22 126.6 70.62C127.493 70.02 128.487 69.72 129.58 69.72C130.7 69.72 131.7 70.02 132.58 70.62C133.473 71.22 134.18 72.0667 134.7 73.16C135.22 74.24 135.48 75.5133 135.48 76.98C135.48 78.4333 135.22 79.7067 134.7 80.8C134.18 81.88 133.48 82.72 132.6 83.32C131.72 83.9067 130.733 84.2 129.64 84.2ZM129.6 81.74C130.24 81.74 130.793 81.56 131.26 81.2C131.727 80.84 132.087 80.3067 132.34 79.6C132.607 78.8933 132.74 78.0133 132.74 76.96C132.74 75.9067 132.607 75.0267 132.34 74.32C132.087 73.6133 131.72 73.0867 131.24 72.74C130.773 72.38 130.22 72.2 129.58 72.2C128.953 72.2 128.407 72.38 127.94 72.74C127.473 73.0867 127.107 73.6133 126.84 74.32C126.587 75.0133 126.46 75.8867 126.46 76.94C126.46 78.0067 126.587 78.8933 126.84 79.6C127.107 80.3067 127.473 80.84 127.94 81.2C128.407 81.56 128.96 81.74 129.6 81.74Z" fill="black"/>
<path d="M159.407 42C157.659 48.2678 153.008 52.5605 149.315 57.6476" stroke="#FFAE00" stroke-width="3" stroke-linecap="round"/>
<path d="M163.2 58.7138C159.708 59.7608 156.046 61.0655 153.135 63.3277" stroke="#FFAE00" stroke-width="3" stroke-linecap="round"/>
<path d="M143.307 44.2139C143.806 47.138 143.997 49.9575 143.726 52.8932C143.659 53.6221 143.498 54.3648 143.523 55.0898" stroke="#FFAE00" stroke-width="3" stroke-linecap="round"/>
</svg>
