<svg width="48" height="48" viewBox="0 0 48 48" fill="none" xmlns="http://www.w3.org/2000/svg">
<path fill-rule="evenodd" clip-rule="evenodd" d="M40.5569 18.9362C40.0196 18.6471 39.6344 18.9254 39.3004 19.3356C38.8495 19.8892 38.8395 20.7311 38.183 21.1528C38.1058 21.0988 38.0325 21.0757 38.0271 21.0417C37.9209 20.4396 37.82 19.8359 37.7237 19.233C36.8187 13.6017 33.4528 9.5587 28.3626 7.97666C22.0771 6.02374 15.6907 6.80238 10.952 12.1161C7.8353 15.6102 6.45037 20.0557 7.19943 24.7718C8.0761 30.2905 10.9735 34.682 15.6181 37.8316C16.2356 38.2501 16.8837 38.5732 17.6359 38.6272C18.2129 38.668 18.7777 38.6087 18.9199 37.9086C19.0391 37.318 18.6532 36.9842 18.1587 36.8161C17.5189 36.5987 16.9266 36.3343 16.3702 35.9286C12.9424 33.4345 10.6182 30.2489 9.5084 26.0446C8.22751 21.1904 9.72857 17.1489 12.4234 13.2863C14.6544 10.0899 18.2611 10.0104 21.504 9.25101C28.9429 7.50777 35.9285 14.6679 35.9048 20.4272C35.9024 21.0247 36.3037 21.8651 35.784 22.1596C35.1137 22.5405 34.6306 21.7756 34.1919 21.2807C33.8121 20.8512 33.3696 20.4195 32.7895 20.8188C32.1482 21.2614 32.3141 21.929 32.6664 22.4579C33.7364 24.0686 35.6135 24.5126 37.1344 25.4687C37.334 25.5943 37.9469 25.4031 38.1143 25.1695C39.26 23.5851 40.3981 21.9815 40.9445 20.0594C41.0652 19.6316 41.0116 19.1806 40.5569 18.9362Z" fill="#014D49"/>
<path fill-rule="evenodd" clip-rule="evenodd" d="M24.6893 24.7342C25.686 21.2208 28.5444 19.1561 30.7769 16.6088C31.2027 16.1261 31.727 15.6836 31.2424 15.0538C30.7769 14.4369 30.1525 14.7115 29.6007 15.0538C28.5307 15.7107 27.8864 16.7769 27.0885 17.7013C25.7127 19.2972 24.4371 21.2078 21.8522 19.8539C21.6596 19.7529 21.2538 19.7329 21.1475 19.8539C19.9247 21.2748 19.0541 20.0012 18.0774 19.4785C17.4858 19.1631 16.8882 18.8479 16.2759 18.5864C15.7914 18.3852 15.2862 18.4053 15.0141 18.9558C14.7474 19.4847 15.0003 19.9342 15.4321 20.2225C15.9901 20.598 16.6283 20.8463 17.1671 21.2418C17.9841 21.8316 18.9609 22.2402 19.2139 23.4468C19.5731 25.1692 20.8946 26.1684 22.5761 26.1684C23.6263 26.2091 24.4173 25.6856 24.6893 24.7342ZM21.4534 23.4127C21.6987 22.8499 22.2176 22.3141 22.8956 22.2061C23.228 22.1599 23.2945 22.5615 23.2945 22.8699C23.0951 23.4204 23.1012 24.1505 22.2642 24.1035C21.8653 24.0766 21.2538 23.8761 21.4534 23.4127Z" fill="#014D49"/>
<path fill-rule="evenodd" clip-rule="evenodd" d="M21.922 13.4777C22.606 13.5918 22.8491 13.0969 22.8949 12.4076C22.7765 11.8262 22.7352 11.1 21.8945 10.9728C21.1768 10.8626 20.9376 11.366 20.9415 11.9682C20.9437 12.6604 21.1256 13.3451 21.922 13.4777Z" fill="#014D49"/>
<path fill-rule="evenodd" clip-rule="evenodd" d="M11.5061 22.466C10.8305 22.4744 10.1297 22.6078 10.0051 23.4313C9.89961 24.1229 10.3895 24.3927 11.0017 24.3873C11.6796 24.3803 12.3231 24.2678 12.5257 23.469C12.5158 22.7728 12.1214 22.4575 11.5061 22.466Z" fill="#014D49"/>
<path fill-rule="evenodd" clip-rule="evenodd" d="M27.5219 39.0764C26.3776 39.0648 25.2343 39.0725 23.6461 39.0725C24.5816 38.0124 25.1961 37.3448 25.7769 36.6478C26.4052 35.8953 27.0663 35.1591 27.5998 34.3418C28.9579 32.2601 28.5192 29.2217 26.743 27.9982C25.0875 26.8579 22.236 27.7707 20.8969 29.8948C20.3497 30.7622 19.869 31.8731 20.9069 32.5131C22.1725 33.2964 22.0946 31.8794 22.4331 31.2001C23.092 29.8747 24.7329 29.0444 25.5583 29.7074C26.7713 30.6789 26.6214 31.9471 25.9916 33.2008C25.8289 33.5238 25.5515 33.7859 25.3344 34.0821C24.1688 35.6703 22.7656 37.0396 21.3846 38.4273C20.9259 38.8899 20.602 39.3817 20.7892 40.0626C20.9909 40.7919 21.6062 40.9531 22.2253 40.9661C23.9915 41.0031 25.7601 41.0109 27.5272 40.9831C28.1761 40.9723 28.805 40.7226 28.7439 39.9238C28.6921 39.2498 28.1089 39.0818 27.5219 39.0764Z" fill="#014D49"/>
<path fill-rule="evenodd" clip-rule="evenodd" d="M38.0669 34.9637C36.4664 35.1519 36.432 34.1998 36.565 33.054C36.6384 32.4434 36.6858 31.8335 36.7584 31.1227C36.6652 30.4257 36.6591 29.6077 36.4396 28.8568C36.14 27.8244 35.2229 27.5361 34.6848 28.3881C33.1624 30.7805 31.2096 32.7981 29.5212 35.0378C28.6637 36.1773 29.2614 37.2096 30.6975 37.2628C31.4817 37.2976 32.2789 37.2166 33.0637 37.1225C34.1467 36.9883 34.6182 37.3369 34.5319 38.5172C34.4792 39.3214 34.3324 40.5148 35.5484 40.4878C36.8179 40.4608 36.4587 39.2203 36.4395 38.4563C36.3991 37.2898 36.7583 36.747 37.9674 36.8141C38.5323 36.8473 39.0978 36.6128 39.1437 35.9159C39.1843 35.192 38.6324 34.8975 38.0669 34.9637ZM32.2987 34.9576C32.9636 34.0185 33.4291 33.0401 34.5587 32.5306C34.6382 35.3122 34.6382 35.3122 32.2987 34.9576Z" fill="#014D49"/>
</svg>
