<svg width="40" height="40" viewBox="0 0 40 40" fill="none" xmlns="http://www.w3.org/2000/svg">
<rect width="40" height="40" rx="20" fill="#FFF3F6"/>
<path d="M33.7599 18.5813L32.9312 15.2666C33.1578 15.2185 33.3278 15.0175 33.3278 14.7767V14.2423C33.3278 13.0819 32.3837 12.1379 31.2234 12.1379H27.4489V11.0355C27.4489 10.4645 26.9844 10 26.4134 10H7.17326C6.60226 10 6.13775 10.4645 6.13775 11.0355V20.1211C6.13775 20.3978 6.36207 20.6222 6.63882 20.6222C6.91551 20.6222 7.13988 20.3979 7.13988 20.1211V11.0355C7.13988 11.0171 7.15482 11.0021 7.17326 11.0021H26.4134C26.4318 11.0021 26.4467 11.0171 26.4467 11.0355V20.1213C26.4467 20.398 26.671 20.6223 26.9478 20.6223C27.2245 20.6223 27.4489 20.398 27.4489 20.1213V19.5533H33.3594C33.3599 19.5533 33.3603 19.5534 33.3607 19.5534C33.3612 19.5534 33.3617 19.5533 33.3621 19.5533C34.0894 19.5538 34.707 20.0312 34.9191 20.689H33.3611C33.0844 20.689 32.8601 20.9133 32.8601 21.1901V22.259C32.8601 23.1247 33.5643 23.8289 34.43 23.8289H34.9979V26.0335H33.6877C33.2574 24.7908 32.0761 23.8957 30.6889 23.8957C29.3017 23.8957 28.1203 24.7908 27.69 26.0335H27.4487V22.2589C27.4487 21.9822 27.2244 21.7578 26.9477 21.7578C26.671 21.7578 26.4466 21.9822 26.4466 22.2589V26.0333H16.0511C15.6207 24.7907 14.4394 23.8955 13.0522 23.8955C11.665 23.8955 10.4836 24.7907 10.0533 26.0333H7.17326C7.15482 26.0333 7.13988 26.0184 7.13988 26V24.8977H9.31107C9.58776 24.8977 9.81214 24.6733 9.81214 24.3966C9.81214 24.1198 9.58782 23.8955 9.31107 23.8955H4.50106C4.22438 23.8955 4 24.1198 4 24.3966C4 24.6733 4.22431 24.8977 4.50106 24.8977H6.13782V26C6.13782 26.571 6.60232 27.0355 7.17332 27.0355H9.87982C9.8797 27.0466 9.87895 27.0577 9.87895 27.0688C9.87895 28.8186 11.3025 30.2421 13.0522 30.2421C14.8019 30.2421 16.2255 28.8186 16.2255 27.0688C16.2255 27.0576 16.2247 27.0466 16.2246 27.0355H27.5165C27.5164 27.0466 27.5156 27.0577 27.5156 27.0688C27.5156 28.8186 28.9392 30.2421 30.6889 30.2421C32.4386 30.2421 33.8621 28.8186 33.8621 27.0688C33.8621 27.0576 33.8614 27.0466 33.8612 27.0355H35.4989C35.7756 27.0355 36 26.8112 36 26.5344V21.19C36.0001 19.8705 35.0265 18.7741 33.7599 18.5813ZM27.4489 13.1399H31.2234C31.8312 13.1399 32.3257 13.6344 32.3257 14.2423V14.2756H27.4489V13.1399ZM27.4489 18.5512V15.2777H31.9011L32.7195 18.5512H27.4489ZM13.0522 29.2402C11.855 29.2402 10.881 28.2662 10.881 27.069C10.881 25.8717 11.855 24.8978 13.0522 24.8978C14.2494 24.8978 15.2234 25.8717 15.2234 27.069C15.2234 28.2662 14.2494 29.2402 13.0522 29.2402ZM30.689 29.2402C29.4918 29.2402 28.5178 28.2662 28.5178 27.069C28.5178 25.8717 29.4918 24.8978 30.689 24.8978C31.8862 24.8978 32.8602 25.8717 32.8602 27.069C32.8602 28.2662 31.8862 29.2402 30.689 29.2402ZM34.998 22.8268H34.4301C34.117 22.8268 33.8622 22.572 33.8622 22.2589V21.691H34.9979V22.8268H34.998Z" fill="#004F4F"/>
<path d="M13.0522 26.0332C12.4812 26.0332 12.0167 26.4977 12.0167 27.0687C12.0167 27.6397 12.4812 28.1042 13.0522 28.1042C13.6232 28.1042 14.0877 27.6397 14.0877 27.0687C14.0877 26.4977 13.6232 26.0332 13.0522 26.0332Z" fill="#004F4F"/>
<path d="M30.6891 26.0332C30.1181 26.0332 29.6536 26.4977 29.6536 27.0687C29.6536 27.6397 30.1181 28.1042 30.6891 28.1042C31.2601 28.1042 31.7246 27.6397 31.7246 27.0687C31.7246 26.4977 31.2601 26.0332 30.6891 26.0332Z" fill="#004F4F"/>
<path d="M24.81 23.896H17.3277C17.051 23.896 16.8267 24.1203 16.8267 24.3971C16.8267 24.6738 17.051 24.8981 17.3277 24.8981H24.81C25.0867 24.8981 25.3111 24.6738 25.3111 24.3971C25.3111 24.1203 25.0867 23.896 24.81 23.896Z" fill="#004F4F"/>
<path d="M11.9833 21.7583H5.56991C5.29322 21.7583 5.06885 21.9826 5.06885 22.2594C5.06885 22.5361 5.29316 22.7604 5.56991 22.7604H11.9833C12.26 22.7604 12.4844 22.5361 12.4844 22.2594C12.4844 21.9826 12.26 21.7583 11.9833 21.7583Z" fill="#004F4F"/>
<path d="M21.4233 14.9563C21.2277 14.7607 20.9103 14.7607 20.7147 14.9563L16.259 19.412L13.941 17.0941C13.7453 16.8984 13.4281 16.8984 13.2325 17.0941C13.0368 17.2898 13.0368 17.607 13.2325 17.8027L15.9047 20.4749C16.0025 20.5728 16.1308 20.6217 16.259 20.6217C16.3872 20.6217 16.5155 20.5728 16.6132 20.4749L21.4232 15.6649C21.6189 15.4692 21.6189 15.152 21.4233 14.9563Z" fill="#004F4F"/>
</svg>
