<svg width="48" height="48" viewBox="0 0 48 48" fill="none" xmlns="http://www.w3.org/2000/svg">
<path d="M37.6 13.9999L28.41 9.99985C27.0195 9.39131 25.518 9.07715 24 9.07715C22.4821 9.07715 20.9806 9.39131 19.59 9.99985L10.4 13.9999C9.69385 14.308 9.09168 14.8136 8.66592 15.4557C8.24016 16.0979 8.00894 16.8494 8.00004 17.6199V26.7199C6.59985 28.241 5.84294 30.2452 5.88801 32.3122C5.93308 34.3792 6.77662 36.3485 8.24178 37.8072C9.70694 39.2659 11.6799 40.1007 13.7471 40.1366C15.8143 40.1725 17.8151 39.4068 19.33 37.9999L19.59 38.1099C20.9806 38.7184 22.4821 39.0326 24 39.0326C25.518 39.0326 27.0195 38.7184 28.41 38.1099L37.6 34.1099C38.3234 33.7943 38.9373 33.2717 39.3644 32.608C39.7915 31.9442 40.0126 31.169 40 30.3799V17.6199C39.9912 16.8494 39.7599 16.0979 39.3342 15.4557C38.9084 14.8136 38.3062 14.308 37.6 13.9999ZM20.49 19.3399L32.65 13.9999L36.38 15.6299L28 19.1499C25.6165 20.1868 22.9229 20.255 20.49 19.3399ZM15.49 19.4199L16.99 20.0599V21.8899L15.49 21.2099V19.4199ZM17.31 17.9999L29.6 12.6299L30.16 12.8799L18.16 18.1699L17.91 18.2799L17.31 17.9999ZM20.39 11.7399C22.5085 10.8183 24.9002 10.7467 27.07 11.5399L14.78 16.9399L11.62 15.5999L20.39 11.7399ZM14 37.9999C12.4087 37.9999 10.8826 37.3677 9.7574 36.2425C8.63219 35.1173 8.00004 33.5912 8.00004 31.9999C7.99642 31.6643 8.02657 31.3293 8.09004 30.9999C8.13932 30.6589 8.22309 30.3239 8.34004 29.9999C8.34004 29.9999 8.34004 29.9999 8.34004 29.9499C8.4468 29.6516 8.58069 29.3637 8.74004 29.0899L8.84004 28.8999C9.00284 28.6323 9.18676 28.3781 9.39004 28.1399L9.56004 27.9999C9.77408 27.7507 10.0119 27.5229 10.27 27.3199C10.5015 27.1394 10.7454 26.9757 11 26.8299C11.0323 26.8134 11.0625 26.7932 11.09 26.7699C11.6655 26.4501 12.2911 26.2303 12.94 26.1199C13.2889 26.0474 13.6438 26.0072 14 25.9999C15.5913 25.9999 17.1175 26.632 18.2427 27.7572C19.3679 28.8824 20 30.4086 20 31.9999C19.9987 32.2373 19.982 32.4745 19.95 32.7099C19.9549 32.7831 19.9549 32.8566 19.95 32.9299C19.9307 33.0884 19.9006 33.2454 19.86 33.3999L19.8 33.6399C19.75 33.7999 19.7 33.9498 19.64 34.0998C19.6211 34.1647 19.5977 34.2282 19.57 34.2899C19.49 34.4899 19.39 34.6899 19.29 34.8899L19.2 35.0299C19.11 35.1799 19.02 35.3199 18.92 35.4599C18.8824 35.5206 18.8388 35.5776 18.79 35.6299C18.6914 35.7662 18.5845 35.8964 18.47 36.0199L18.36 36.1399C18.0343 36.4827 17.6683 36.7849 17.27 37.0399C16.2982 37.6745 15.1607 38.0085 14 37.9999ZM20.78 36.2399C20.92 36.0099 21.06 35.7599 21.18 35.5199L21.3 35.2598C21.43 34.9598 21.55 34.6499 21.65 34.3399C21.6535 34.2866 21.6535 34.2331 21.65 34.1799C21.7287 33.8968 21.7921 33.6097 21.84 33.3199C21.8449 33.2299 21.8449 33.1398 21.84 33.0499C21.9188 32.7042 21.9722 32.3533 22 31.9999C22 29.8781 21.1572 27.8433 19.6569 26.343C18.1566 24.8427 16.1218 23.9999 14 23.9999C13.68 23.9999 13.36 23.9999 13.05 24.0599H12.87C12.2281 24.1471 11.5998 24.3151 11 24.5599H10.89C10.6 24.6899 10.31 24.8299 10.03 24.9899V17.6199C10.033 17.451 10.0565 17.2831 10.1 17.1199L13.53 18.5699V21.2099C13.533 21.5851 13.6415 21.952 13.843 22.2685C14.0446 22.5851 14.3312 22.8385 14.67 22.9999L16.17 23.6799C16.4299 23.802 16.7129 23.8668 17 23.8699C17.5305 23.8699 18.0392 23.6591 18.4143 23.2841C18.7893 22.909 19 22.4003 19 21.8699V20.8699L19.19 20.9499C20.397 21.4887 21.684 21.8265 23 21.9499V36.9499C22.2123 36.8641 21.4391 36.6759 20.7 36.3899L20.78 36.2399ZM38 30.3799C38.0014 30.7702 37.8885 31.1524 37.6753 31.4794C37.462 31.8063 37.1578 32.0637 36.8 32.2199L27.61 36.2199C26.7789 36.5775 25.8993 36.81 25 36.9099V21.9099C26.3131 21.7876 27.5969 21.4497 28.8 20.9099L37.93 17.0399C37.9736 17.2031 37.9971 17.371 38 17.5399V30.3799Z" fill="#014D49"/>
<path d="M31.15 22.3499L28 23.5199C27.779 23.6001 27.5934 23.7556 27.4756 23.9591C27.3579 24.1625 27.3156 24.401 27.3562 24.6325C27.3968 24.8641 27.5176 25.0739 27.6976 25.2252C27.8775 25.3765 28.1049 25.4596 28.34 25.4599C28.456 25.4598 28.571 25.4395 28.68 25.3999L31.88 24.2299C32.007 24.188 32.1243 24.1211 32.2249 24.033C32.3255 23.945 32.4075 23.8377 32.466 23.7175C32.5244 23.5972 32.5582 23.4665 32.5652 23.333C32.5723 23.1994 32.5525 23.0659 32.507 22.9401C32.4615 22.8144 32.3913 22.6991 32.3005 22.601C32.2096 22.5028 32.1001 22.4239 31.9782 22.3689C31.8563 22.3139 31.7247 22.2838 31.591 22.2806C31.4574 22.2773 31.3244 22.3009 31.2 22.3499H31.15Z" fill="#014D49"/>
<path d="M15.41 33.4002C15.0276 33.7617 14.5213 33.9631 13.995 33.9631C13.4688 33.9631 12.9625 33.7617 12.58 33.4002C12.5349 33.3601 12.4844 33.3264 12.43 33.3002L12.75 32.9702C13.16 32.5602 13.04 31.9702 12.58 31.9702H12.48L10.93 32.2002C10.7598 32.2343 10.6034 32.318 10.4806 32.4408C10.3579 32.5636 10.2741 32.72 10.24 32.8902L10 34.4802C9.9846 34.5431 9.9839 34.6086 9.99797 34.6718C10.012 34.7349 10.0405 34.794 10.0812 34.8443C10.1218 34.8946 10.1736 34.9349 10.2323 34.9619C10.2911 34.989 10.3554 35.0021 10.42 35.0002C10.6257 34.9905 10.8195 34.9007 10.96 34.7502L11.05 34.6602C11.05 34.7102 11.11 34.7702 11.15 34.8102C11.5215 35.1821 11.9627 35.4772 12.4483 35.6785C12.9339 35.8798 13.4544 35.9834 13.98 35.9834C14.5057 35.9834 15.0262 35.8798 15.5118 35.6785C15.9974 35.4772 16.4385 35.1821 16.81 34.8102C16.9739 34.6189 17.0595 34.3728 17.0497 34.1212C17.04 33.8695 16.9357 33.6307 16.7576 33.4527C16.5795 33.2746 16.3408 33.1702 16.0891 33.1605C15.8374 33.1508 15.5913 33.2364 15.4 33.4002H15.41Z" fill="#014D49"/>
<path d="M11.8701 30.8602C12.0017 30.861 12.1321 30.8357 12.254 30.786C12.3758 30.7362 12.4866 30.6629 12.5801 30.5702C12.7658 30.3842 12.9864 30.2367 13.2292 30.1361C13.472 30.0354 13.7322 29.9836 13.9951 29.9836C14.2579 29.9836 14.5181 30.0354 14.7609 30.1361C15.0037 30.2367 15.2243 30.3842 15.4101 30.5702C15.4661 30.6159 15.5264 30.656 15.5901 30.6902L15.2501 31.0302C14.8401 31.4402 14.9601 32.0302 15.4201 32.0302H15.5201L17.0701 31.8002C17.2403 31.7661 17.3967 31.6824 17.5195 31.5596C17.6422 31.4368 17.7259 31.2805 17.7601 31.1102L18.0001 29.5202C18.0158 29.4565 18.0163 29.39 18.0017 29.3261C17.9871 29.2621 17.9577 29.2025 17.9159 29.152C17.8741 29.1014 17.8211 29.0614 17.761 29.035C17.701 29.0086 17.6356 28.9967 17.5701 29.0002C17.3644 29.01 17.1706 29.0997 17.0301 29.2502L16.9401 29.3402C16.9073 29.2726 16.8671 29.2088 16.8201 29.1502C16.4486 28.7783 16.0074 28.4833 15.5218 28.282C15.0362 28.0807 14.5157 27.9771 13.9901 27.9771C13.4644 27.9771 12.9439 28.0807 12.4583 28.282C11.9727 28.4833 11.5315 28.7783 11.1601 29.1502C11.0663 29.2432 10.9919 29.3538 10.9412 29.4756C10.8904 29.5975 10.8643 29.7282 10.8643 29.8602C10.8643 29.9922 10.8904 30.1229 10.9412 30.2448C10.9919 30.3666 11.0663 30.4772 11.1601 30.5702C11.2535 30.6629 11.3643 30.7362 11.4861 30.786C11.608 30.8357 11.7384 30.861 11.8701 30.8602Z" fill="#014D49"/>
</svg>
