<svg width="32" height="32" viewBox="0 0 32 32" fill="none" xmlns="http://www.w3.org/2000/svg">
<path d="M8.67314 2.6665H23.3398C23.7594 2.6665 24.1546 2.86409 24.4065 3.19984L28.0065 7.99984V27.9998C28.0065 28.7362 27.4096 29.3332 26.6732 29.3332H5.3398C4.60343 29.3332 4.00647 28.7362 4.00647 27.9998V7.99984L7.60647 3.19984C7.85828 2.86409 8.25347 2.6665 8.67314 2.6665ZM25.3398 10.6665H6.67314V26.6665H25.3398V10.6665ZM24.6732 7.99984L22.6732 5.33317H9.3398L7.3398 7.99984H24.6732ZM12.0065 13.3332V15.9998C12.0065 18.209 13.7973 19.9998 16.0065 19.9998C18.2156 19.9998 20.0065 18.209 20.0065 15.9998V13.3332H22.6732V15.9998C22.6732 19.6817 19.6884 22.6665 16.0065 22.6665C12.3246 22.6665 9.3398 19.6817 9.3398 15.9998V13.3332H12.0065Z" fill="white"/>
</svg>
