<svg width="70" height="58" viewBox="0 0 70 58" fill="none" xmlns="http://www.w3.org/2000/svg">
<path d="M0 0H58C64.6274 0 70 5.37258 70 12V24C70 30.6274 64.6274 36 58 36H0V0Z" fill="#FFAE00"/>
<path d="M33 39L12 57.5L34 48.5C34 44.79 33 42.71 33 39Z" fill="#9E6E06"/>
<path d="M34 48.5L0.5 36H34V48.5Z" fill="#DB9600"/>
<path d="M13.468 16.144C12.74 16.144 12.104 16.04 11.56 15.832C11.024 15.616 10.528 15.276 10.072 14.812L11.572 13.312C11.884 13.608 12.212 13.836 12.556 13.996C12.9 14.148 13.268 14.224 13.66 14.224C13.988 14.224 14.236 14.176 14.404 14.08C14.572 13.976 14.656 13.836 14.656 13.66C14.656 13.484 14.584 13.34 14.44 13.228C14.296 13.108 14.104 13.004 13.864 12.916C13.632 12.82 13.372 12.724 13.084 12.628C12.804 12.532 12.524 12.416 12.244 12.28C11.964 12.144 11.704 11.98 11.464 11.788C11.232 11.588 11.044 11.344 10.9 11.056C10.756 10.76 10.684 10.4 10.684 9.976C10.684 9.424 10.816 8.948 11.08 8.548C11.344 8.148 11.716 7.844 12.196 7.636C12.676 7.42 13.24 7.312 13.888 7.312C14.528 7.312 15.12 7.416 15.664 7.624C16.216 7.824 16.672 8.112 17.032 8.488L15.52 9.988C15.256 9.732 14.992 9.544 14.728 9.424C14.464 9.296 14.176 9.232 13.864 9.232C13.616 9.232 13.416 9.272 13.264 9.352C13.12 9.432 13.048 9.552 13.048 9.712C13.048 9.88 13.12 10.02 13.264 10.132C13.408 10.236 13.596 10.332 13.828 10.42C14.068 10.508 14.328 10.6 14.608 10.696C14.896 10.792 15.18 10.908 15.46 11.044C15.74 11.172 15.996 11.34 16.228 11.548C16.468 11.748 16.66 12 16.804 12.304C16.948 12.608 17.02 12.976 17.02 13.408C17.02 14.28 16.708 14.956 16.084 15.436C15.468 15.908 14.596 16.144 13.468 16.144ZM19.9645 13V11.272H21.5125C21.6965 11.272 21.8645 11.236 22.0165 11.164C22.1765 11.084 22.3045 10.968 22.4005 10.816C22.4965 10.656 22.5445 10.46 22.5445 10.228C22.5445 9.996 22.4965 9.804 22.4005 9.652C22.3045 9.492 22.1765 9.376 22.0165 9.304C21.8645 9.224 21.6965 9.184 21.5125 9.184H19.9645V7.456H21.9805C22.5325 7.456 23.0285 7.568 23.4685 7.792C23.9165 8.008 24.2685 8.324 24.5245 8.74C24.7885 9.148 24.9205 9.644 24.9205 10.228C24.9205 10.804 24.7885 11.3 24.5245 11.716C24.2685 12.132 23.9165 12.452 23.4685 12.676C23.0285 12.892 22.5325 13 21.9805 13H19.9645ZM18.0205 16V7.456H20.4205V16H18.0205ZM25.7783 16V7.456H28.1783V16H25.7783ZM27.7223 16V14.008H32.3063V16H27.7223ZM27.7223 12.616V10.672H31.8623V12.616H27.7223ZM27.7223 9.448V7.456H32.2343V9.448H27.7223ZM37.5258 16.144C36.8698 16.144 36.2578 16.036 35.6898 15.82C35.1298 15.596 34.6378 15.284 34.2138 14.884C33.7898 14.484 33.4578 14.016 33.2178 13.48C32.9858 12.936 32.8698 12.348 32.8698 11.716C32.8698 11.076 32.9858 10.488 33.2178 9.952C33.4578 9.416 33.7858 8.952 34.2018 8.56C34.6258 8.168 35.1178 7.864 35.6777 7.648C36.2378 7.424 36.8458 7.312 37.5018 7.312C38.1658 7.312 38.7738 7.416 39.3258 7.624C39.8778 7.832 40.3578 8.12 40.7658 8.488L39.1698 10.096C38.9778 9.888 38.7418 9.724 38.4618 9.604C38.1898 9.484 37.8698 9.424 37.5018 9.424C37.1818 9.424 36.8858 9.476 36.6138 9.58C36.3498 9.684 36.1218 9.836 35.9298 10.036C35.7378 10.236 35.5858 10.48 35.4738 10.768C35.3698 11.048 35.3178 11.364 35.3178 11.716C35.3178 12.076 35.3698 12.4 35.4738 12.688C35.5858 12.968 35.7378 13.208 35.9298 13.408C36.1218 13.608 36.3498 13.764 36.6138 13.876C36.8858 13.98 37.1818 14.032 37.5018 14.032C37.8618 14.032 38.1818 13.976 38.4618 13.864C38.7498 13.752 38.9978 13.588 39.2057 13.372L40.8138 14.98C40.3898 15.348 39.9138 15.636 39.3858 15.844C38.8578 16.044 38.2378 16.144 37.5258 16.144ZM41.6455 16V7.456H44.0455V16H41.6455ZM44.8298 16L48.0818 7.456H50.5298L53.7458 16H51.2498L48.8618 8.74H49.7258L47.2778 16H44.8298ZM46.9418 14.56V12.688H51.7178V14.56H46.9418ZM54.4307 16V7.456H56.8307V16H54.4307ZM56.3867 16V13.96H60.3827V16H56.3867ZM14.932 29.168C14.26 29.168 13.64 29.056 13.072 28.832C12.512 28.608 12.02 28.296 11.596 27.896C11.18 27.496 10.856 27.024 10.624 26.48C10.392 25.936 10.276 25.348 10.276 24.716C10.276 24.076 10.388 23.488 10.612 22.952C10.844 22.416 11.168 21.948 11.584 21.548C12 21.148 12.488 20.84 13.048 20.624C13.616 20.4 14.236 20.288 14.908 20.288C15.58 20.288 16.196 20.4 16.756 20.624C17.324 20.84 17.816 21.148 18.232 21.548C18.648 21.948 18.968 22.42 19.192 22.964C19.424 23.5 19.54 24.088 19.54 24.728C19.54 25.36 19.424 25.948 19.192 26.492C18.968 27.028 18.648 27.5 18.232 27.908C17.816 28.308 17.328 28.62 16.768 28.844C16.208 29.06 15.596 29.168 14.932 29.168ZM14.908 27.056C15.356 27.056 15.744 26.96 16.072 26.768C16.4 26.576 16.652 26.304 16.828 25.952C17.004 25.6 17.092 25.188 17.092 24.716C17.092 24.364 17.04 24.048 16.936 23.768C16.84 23.48 16.696 23.236 16.504 23.036C16.312 22.828 16.08 22.672 15.808 22.568C15.544 22.456 15.244 22.4 14.908 22.4C14.46 22.4 14.072 22.496 13.744 22.688C13.416 22.872 13.164 23.14 12.988 23.492C12.812 23.836 12.724 24.244 12.724 24.716C12.724 25.076 12.772 25.4 12.868 25.688C12.972 25.976 13.12 26.224 13.312 26.432C13.504 26.632 13.732 26.788 13.996 26.9C14.268 27.004 14.572 27.056 14.908 27.056ZM20.5283 29V20.456H22.9283V29H20.5283ZM22.4723 25.964V23.972H26.6723V25.964H22.4723ZM22.4723 22.448V20.456H26.8523V22.448H22.4723ZM27.8994 29V20.456H30.2994V29H27.8994ZM29.8434 25.964V23.972H34.0434V25.964H29.8434ZM29.8434 22.448V20.456H34.2234V22.448H29.8434ZM35.2705 29V20.456H37.6705V29H35.2705ZM37.2145 29V27.008H41.7985V29H37.2145ZM37.2145 25.616V23.672H41.3545V25.616H37.2145ZM37.2145 22.448V20.456H41.7265V22.448H37.2145ZM44.8786 25.592V23.936H46.3306C46.6586 23.936 46.9066 23.856 47.0746 23.696C47.2506 23.536 47.3386 23.324 47.3386 23.06C47.3386 22.796 47.2506 22.584 47.0746 22.424C46.9066 22.264 46.6586 22.184 46.3306 22.184H44.8786V20.456H46.7146C47.3066 20.456 47.8266 20.564 48.2746 20.78C48.7226 20.996 49.0746 21.296 49.3306 21.68C49.5866 22.064 49.7146 22.512 49.7146 23.024C49.7146 23.536 49.5826 23.984 49.3186 24.368C49.0626 24.752 48.7026 25.052 48.2386 25.268C47.7746 25.484 47.2266 25.592 46.5946 25.592H44.8786ZM42.9346 29V20.456H45.3346V29H42.9346ZM47.5426 29L45.2146 25.352L47.3746 24.884L50.2666 29H47.5426Z" fill="white"/>
</svg>
