<svg width="338" height="34" viewBox="0 0 338 34" fill="none" xmlns="http://www.w3.org/2000/svg">
<rect width="58" height="34" rx="4" fill="#F7F7F7"/>
<path d="M15.0465 11.5385C14.5247 11.1798 13.8439 11 13.0039 11H9.75198C9.49448 11 9.35222 11.1288 9.3252 11.386L8.00415 19.6782C7.99042 19.7597 8.01079 19.8342 8.06509 19.9019C8.11907 19.9698 8.18698 20.0035 8.26829 20.0035H9.81293C10.0838 20.0035 10.2328 19.875 10.2601 19.6174L10.6259 17.3819C10.6392 17.2735 10.6869 17.1854 10.7682 17.1176C10.8495 17.0499 10.9511 17.0055 11.073 16.9853C11.195 16.9651 11.31 16.955 11.4186 16.955C11.5268 16.955 11.6555 16.9618 11.8048 16.9753C11.9537 16.9889 12.0486 16.9955 12.0893 16.9955C13.2545 16.9955 14.1691 16.6671 14.8331 16.0098C15.4968 15.3527 15.8291 14.4416 15.8291 13.2761C15.8291 12.4767 15.568 11.8975 15.0465 11.5382V11.5385ZM13.3698 14.0284C13.3018 14.5027 13.1259 14.8142 12.8414 14.9633C12.5568 15.1126 12.1503 15.1867 11.622 15.1867L10.9512 15.2071L11.2968 13.0324C11.3238 12.8835 11.4118 12.8089 11.561 12.8089H11.9472C12.4889 12.8089 12.8821 12.887 13.126 13.0425C13.3698 13.1985 13.4511 13.5272 13.3698 14.0284Z" fill="#4A5568"/>
<path d="M49.364 11H47.8601C47.7107 11 47.6227 11.0745 47.5959 11.2236L46.2747 19.6786L46.2543 19.7192C46.2543 19.7873 46.2815 19.8513 46.3358 19.9123C46.3897 19.9731 46.4577 20.0037 46.539 20.0037H47.8805C48.1376 20.0037 48.2799 19.8752 48.3074 19.6176L49.6284 11.3049V11.2847C49.6283 11.095 49.54 11.0002 49.364 11.0002V11Z" fill="#4A5568"/>
<path d="M31.1941 14.2728C31.1941 14.2052 31.1669 14.1407 31.113 14.0799C31.0586 14.0189 30.9976 13.9883 30.93 13.9883H29.3651C29.2157 13.9883 29.0938 14.0564 28.9992 14.1915L26.8448 17.3623L25.9506 14.3136C25.8825 14.0969 25.7336 13.9883 25.5034 13.9883H23.9789C23.911 13.9883 23.85 14.0188 23.7962 14.0799C23.7418 14.1407 23.7148 14.2053 23.7148 14.2728C23.7148 14.3001 23.847 14.6997 24.1111 15.472C24.3753 16.2444 24.6599 17.0777 24.9648 17.9721C25.2697 18.8663 25.4287 19.3407 25.4424 19.3946C24.3312 20.9122 23.7759 21.7253 23.7759 21.8335C23.7759 22.0098 23.8639 22.0978 24.0401 22.0978H25.605C25.754 22.0978 25.8759 22.0302 25.9709 21.8946L31.1537 14.4149C31.1806 14.388 31.1941 14.3408 31.1941 14.2727V14.2728Z" fill="#4A5568"/>
<path d="M45.7671 13.988H44.2224C44.0325 13.988 43.9177 14.2116 43.877 14.6588C43.5243 14.1171 42.8811 13.8457 41.946 13.8457C40.9705 13.8457 40.1404 14.2116 39.4563 14.9433C38.772 15.675 38.43 16.5356 38.43 17.5246C38.43 18.3242 38.6636 18.9609 39.1311 19.435C39.5985 19.9096 40.2251 20.1464 41.0113 20.1464C41.4041 20.1464 41.8038 20.0649 42.2103 19.9025C42.6168 19.7399 42.9349 19.5232 43.1656 19.2521C43.1656 19.2657 43.1519 19.3265 43.125 19.4349C43.0977 19.5435 43.0843 19.625 43.0843 19.6788C43.0843 19.8958 43.1722 20.0039 43.3486 20.0039H44.7511C45.0082 20.0039 45.1574 19.8754 45.1979 19.6178L46.0313 14.3131C46.0447 14.2318 46.0244 14.1574 45.9704 14.0895C45.916 14.022 45.8484 13.988 45.7671 13.988ZM43.1148 17.992C42.7692 18.3308 42.3526 18.5001 41.8648 18.5001C41.4717 18.5001 41.1536 18.3919 40.9096 18.1749C40.6656 17.9586 40.5436 17.6604 40.5436 17.2806C40.5436 16.7797 40.713 16.356 41.0518 16.0105C41.3902 15.6649 41.8106 15.4922 42.312 15.4922C42.691 15.4922 43.0061 15.604 43.257 15.8274C43.5075 16.051 43.6331 16.3594 43.6331 16.7523C43.6331 17.2401 43.4602 17.6534 43.1148 17.992Z" fill="#4A5568"/>
<path d="M22.6784 13.988H21.1337C20.9438 13.988 20.8288 14.2116 20.7882 14.6588C20.4223 14.1171 19.7786 13.8457 18.8573 13.8457C17.8817 13.8457 17.0517 14.2116 16.3675 14.9433C15.6832 15.675 15.3412 16.5356 15.3412 17.5246C15.3412 18.3242 15.575 18.9609 16.0424 19.435C16.5099 19.9096 17.1364 20.1464 17.9224 20.1464C18.3016 20.1464 18.6948 20.0649 19.1012 19.9025C19.5077 19.7399 19.8329 19.5232 20.0768 19.2521C20.0224 19.4146 19.9955 19.5569 19.9955 19.6788C19.9955 19.8958 20.0835 20.0039 20.2597 20.0039H21.662C21.9193 20.0039 22.0685 19.8754 22.1092 19.6178L22.9425 14.3131C22.9558 14.2318 22.9355 14.1574 22.8815 14.0895C22.8273 14.022 22.7596 13.988 22.6784 13.988ZM20.026 18.0021C19.6804 18.3345 19.2568 18.5001 18.7558 18.5001C18.3626 18.5001 18.0476 18.3919 17.8106 18.1749C17.5734 17.9586 17.4549 17.6604 17.4549 17.2806C17.4549 16.7797 17.6242 16.356 17.9631 16.0105C18.3016 15.6649 18.7217 15.4922 19.2232 15.4922C19.6024 15.4922 19.9174 15.604 20.1683 15.8275C20.4188 16.0511 20.5443 16.3595 20.5443 16.7524C20.5443 17.2537 20.3716 17.6704 20.026 18.0021Z" fill="#4A5568"/>
<path d="M38.1353 11.5385C37.6135 11.1798 36.9328 11 36.0927 11H32.861C32.5899 11 32.4408 11.1288 32.4139 11.386L31.0928 19.6782C31.0791 19.7597 31.0994 19.8342 31.1538 19.9019C31.2075 19.9698 31.2757 20.0035 31.357 20.0035H33.0235C33.1861 20.0035 33.2944 19.9156 33.3487 19.7394L33.7146 17.3819C33.728 17.2735 33.7755 17.1854 33.8569 17.1176C33.9382 17.0499 34.0397 17.0056 34.1618 16.9853C34.2837 16.9651 34.3986 16.955 34.5073 16.955C34.6156 16.955 34.7443 16.9618 34.8934 16.9753C35.0424 16.9889 35.1376 16.9955 35.1779 16.9955C36.3433 16.9955 37.2577 16.6671 37.9217 16.0098C38.5857 15.3527 38.9176 14.4416 38.9176 13.2761C38.9178 12.4768 38.6568 11.8976 38.1353 11.5383V11.5385ZM36.052 14.882C35.7539 15.0852 35.3067 15.1867 34.7106 15.1867L34.0602 15.2071L34.4057 13.0324C34.4326 12.8835 34.5206 12.8089 34.6699 12.8089H35.0356C35.3337 12.8089 35.5707 12.8224 35.7472 12.8495C35.923 12.8768 36.0927 12.9612 36.2553 13.1035C36.4179 13.2458 36.4992 13.4525 36.4992 13.7235C36.4992 14.2925 36.35 14.6786 36.052 14.882Z" fill="#4A5568"/>
<rect x="70" width="58" height="34" rx="4" fill="#F7F7F7"/>
<g clip-path="url(#clip0_787_151)">
<path d="M96.7333 21.8417H93.9791L95.7018 11.1934H98.4559L96.7333 21.8417Z" fill="#4A5568"/>
<path d="M106.718 11.4533C106.174 11.2379 105.313 11 104.247 11C101.527 11 99.6121 12.4499 99.6003 14.5228C99.5777 16.0522 100.972 16.9017 102.014 17.4116C103.08 17.9327 103.442 18.2729 103.442 18.7373C103.431 19.4507 102.581 19.7795 101.788 19.7795C100.688 19.7795 100.099 19.61 99.2038 19.2131L98.8411 19.043L98.4557 21.4333C99.1017 21.7275 100.292 21.9886 101.527 22C104.417 22 106.299 20.5725 106.321 18.3635C106.332 17.1513 105.596 16.2225 104.009 15.4635C103.046 14.9763 102.456 14.6478 102.456 14.1493C102.467 13.6961 102.955 13.2319 104.042 13.2319C104.938 13.2092 105.596 13.4243 106.094 13.6396L106.343 13.7527L106.718 11.4533Z" fill="#4A5568"/>
<path d="M110.378 18.0693C110.605 17.4576 111.478 15.09 111.478 15.09C111.466 15.1128 111.704 14.467 111.84 14.0706L112.033 14.9881C112.033 14.9881 112.554 17.537 112.668 18.0693C112.237 18.0693 110.922 18.0693 110.378 18.0693ZM113.778 11.1934H111.648C110.991 11.1934 110.492 11.3858 110.208 12.0769L106.117 21.8415H109.007C109.007 21.8415 109.483 20.5273 109.585 20.2442C109.902 20.2442 112.713 20.2442 113.121 20.2442C113.2 20.618 113.45 21.8415 113.45 21.8415H116L113.778 11.1934Z" fill="#4A5568"/>
<path d="M91.6786 11.1934L88.9813 18.4545L88.6866 16.9818C88.1879 15.2826 86.624 13.4364 84.8787 12.5184L87.3493 21.8304H90.2618L94.591 11.1934H91.6786Z" fill="#4A5568"/>
<path d="M86.4766 11.1934H82.0453L82 11.4085C85.4567 12.2922 87.746 14.4221 88.6866 16.9823L87.7232 12.0884C87.5647 11.4084 87.0773 11.2158 86.4766 11.1934Z" fill="#949DAB"/>
</g>
<rect x="140" width="58" height="34" rx="4" fill="#F7F7F7"/>
<g clip-path="url(#clip1_787_151)">
<path fill-rule="evenodd" clip-rule="evenodd" d="M186.998 16.7485C186.998 14.1857 185.758 12.1636 183.388 12.1636C181.008 12.1636 179.568 14.1857 179.568 16.7284C179.568 19.7417 181.268 21.2633 183.708 21.2633C184.898 21.2633 185.798 20.993 186.478 20.6126V18.6105C185.798 18.9508 185.018 19.161 184.028 19.161C183.058 19.161 182.198 18.8207 182.088 17.6394H186.978C186.978 17.5093 186.998 16.9887 186.998 16.7485ZM182.058 15.7975C182.058 14.6662 182.748 14.1957 183.378 14.1957C183.988 14.1957 184.638 14.6662 184.638 15.7975H182.058Z" fill="#4A5568"/>
<path fill-rule="evenodd" clip-rule="evenodd" d="M175.709 12.1636C174.729 12.1636 174.099 12.6241 173.749 12.9444L173.619 12.3237H171.419V23.9962L173.919 23.4656L173.929 20.6326C174.289 20.8929 174.819 21.2633 175.699 21.2633C177.489 21.2633 179.118 19.8217 179.118 16.6484C179.108 13.7453 177.459 12.1636 175.709 12.1636ZM175.109 19.0609C174.519 19.0609 174.169 18.8507 173.929 18.5904L173.919 14.8765C174.179 14.5862 174.539 14.3859 175.109 14.3859C176.019 14.3859 176.649 15.407 176.649 16.7184C176.649 18.0599 176.029 19.0609 175.109 19.0609Z" fill="#4A5568"/>
<path fill-rule="evenodd" clip-rule="evenodd" d="M167.979 11.5727L170.489 11.0322V9L167.979 9.53057V11.5727Z" fill="#4A5568"/>
<path d="M170.489 12.3335H167.979V21.0928H170.489V12.3335Z" fill="#4A5568"/>
<path fill-rule="evenodd" clip-rule="evenodd" d="M165.289 13.0742L165.129 12.3335H162.969V21.0928H165.469V15.1565C166.059 14.3856 167.059 14.5258 167.369 14.6359V12.3335C167.049 12.2133 165.879 11.9931 165.289 13.0742Z" fill="#4A5568"/>
<path fill-rule="evenodd" clip-rule="evenodd" d="M160.289 10.1611L157.85 10.6817L157.84 18.7002C157.84 20.1818 158.95 21.273 160.429 21.273C161.249 21.273 161.849 21.1228 162.179 20.9426V18.9105C161.859 19.0406 160.279 19.5011 160.279 18.0195V14.4657H162.179V12.3335H160.279L160.289 10.1611Z" fill="#4A5568"/>
<path fill-rule="evenodd" clip-rule="evenodd" d="M153.53 14.8765C153.53 14.4861 153.85 14.3359 154.38 14.3359C155.14 14.3359 156.1 14.5661 156.86 14.9766V12.6241C156.03 12.2937 155.21 12.1636 154.38 12.1636C152.35 12.1636 151 13.2247 151 14.9966C151 17.7595 154.8 17.3191 154.8 18.5103C154.8 18.9708 154.4 19.121 153.84 19.121C153.01 19.121 151.95 18.7806 151.11 18.3201V20.7027C152.04 21.1031 152.98 21.2733 153.84 21.2733C155.92 21.2733 157.35 20.2422 157.35 18.4503C157.34 15.4671 153.53 15.9977 153.53 14.8765Z" fill="#4A5568"/>
</g>
<rect x="210" width="58" height="34" rx="4" fill="#F7F7F7"/>
<g clip-path="url(#clip2_787_151)">
<path d="M231.531 25.9583V24.6973C231.531 24.215 231.231 23.8992 230.715 23.8992C230.458 23.8992 230.178 23.9824 229.985 24.2566C229.835 24.0265 229.62 23.8992 229.297 23.8992C229.082 23.8992 228.866 23.9628 228.696 24.193V23.9408H228.246V25.9583H228.696V24.8443C228.696 24.4868 228.889 24.3178 229.189 24.3178C229.489 24.3178 229.64 24.5064 229.64 24.8443V25.9583H230.09V24.8443C230.09 24.4868 230.305 24.3178 230.583 24.3178C230.883 24.3178 231.033 24.5064 231.033 24.8443V25.9583H231.531ZM238.211 23.9408H237.481V23.3311H237.03V23.9408H236.623V24.3399H237.03V25.2654C237.03 25.7281 237.223 25.9999 237.739 25.9999C237.931 25.9999 238.146 25.9363 238.297 25.853L238.166 25.4735C238.036 25.5568 237.886 25.5788 237.779 25.5788C237.563 25.5788 237.478 25.4515 237.478 25.2434V24.3399H238.209V23.9408H238.211ZM242.035 23.8967C241.777 23.8967 241.604 24.024 241.497 24.1905V23.9383H241.046V25.9559H241.497V24.8198C241.497 24.4843 241.647 24.2934 241.927 24.2934C242.012 24.2934 242.12 24.3154 242.207 24.335L242.337 23.9138C242.247 23.8967 242.12 23.8967 242.035 23.8967ZM236.257 24.1073C236.042 23.9604 235.742 23.8967 235.419 23.8967C234.904 23.8967 234.561 24.1489 234.561 24.548C234.561 24.8834 234.819 25.0744 235.269 25.1356L235.484 25.1577C235.719 25.1993 235.85 25.2629 235.85 25.3682C235.85 25.5151 235.677 25.6204 235.377 25.6204C235.076 25.6204 234.839 25.5151 234.689 25.4098L234.473 25.7453C234.709 25.9142 235.031 25.9975 235.354 25.9975C235.955 25.9975 236.3 25.7232 236.3 25.3462C236.3 24.9887 236.02 24.8002 235.592 24.7365L235.377 24.7145C235.184 24.6924 235.034 24.6508 235.034 24.526C235.034 24.379 235.184 24.2958 235.422 24.2958C235.679 24.2958 235.937 24.4011 236.067 24.4647L236.257 24.1073ZM248.239 23.8967C247.982 23.8967 247.809 24.024 247.702 24.1905V23.9383H247.251V25.9559H247.702V24.8198C247.702 24.4843 247.852 24.2934 248.132 24.2934C248.217 24.2934 248.325 24.3154 248.412 24.335L248.542 23.9187C248.455 23.8967 248.327 23.8967 248.239 23.8967ZM242.485 24.9495C242.485 25.5592 242.915 25.9999 243.581 25.9999C243.881 25.9999 244.096 25.9363 244.311 25.7698L244.096 25.4123C243.924 25.5396 243.753 25.6008 243.558 25.6008C243.193 25.6008 242.935 25.3486 242.935 24.9495C242.935 24.57 243.193 24.3178 243.558 24.2982C243.751 24.2982 243.924 24.3619 244.096 24.4868L244.311 24.1293C244.096 23.9604 243.881 23.8992 243.581 23.8992C242.915 23.8967 242.485 24.3399 242.485 24.9495ZM246.651 24.9495V23.9408H246.2V24.193C246.05 24.0044 245.835 23.8992 245.555 23.8992C244.974 23.8992 244.524 24.3399 244.524 24.9495C244.524 25.5592 244.974 25.9999 245.555 25.9999C245.855 25.9999 246.07 25.8946 246.2 25.7061V25.9583H246.651V24.9495ZM244.997 24.9495C244.997 24.5921 245.232 24.2982 245.62 24.2982C245.985 24.2982 246.243 24.5725 246.243 24.9495C246.243 25.307 245.985 25.6008 245.62 25.6008C245.235 25.5788 244.997 25.3046 244.997 24.9495ZM239.608 23.8967C239.007 23.8967 238.577 24.3178 238.577 24.9471C238.577 25.5788 239.007 25.9975 239.63 25.9975C239.93 25.9975 240.231 25.9142 240.468 25.7232L240.253 25.4074C240.08 25.5347 239.865 25.618 239.653 25.618C239.372 25.618 239.095 25.4906 239.03 25.1356H240.553C240.553 25.072 240.553 25.0303 240.553 24.9667C240.573 24.3178 240.186 23.8967 239.608 23.8967ZM239.608 24.2762C239.888 24.2762 240.08 24.4452 240.123 24.7586H239.05C239.092 24.4868 239.285 24.2762 239.608 24.2762ZM250.797 24.9495V23.1426H250.346V24.193C250.196 24.0044 249.981 23.8992 249.701 23.8992C249.12 23.8992 248.67 24.3399 248.67 24.9495C248.67 25.5592 249.12 25.9999 249.701 25.9999C250.001 25.9999 250.216 25.8946 250.346 25.7061V25.9583H250.797V24.9495ZM249.143 24.9495C249.143 24.5921 249.378 24.2982 249.766 24.2982C250.131 24.2982 250.389 24.5725 250.389 24.9495C250.389 25.307 250.131 25.6008 249.766 25.6008C249.378 25.5788 249.143 25.3046 249.143 24.9495ZM234.066 24.9495V23.9408H233.615V24.193C233.465 24.0044 233.25 23.8992 232.97 23.8992C232.389 23.8992 231.939 24.3399 231.939 24.9495C231.939 25.5592 232.389 25.9999 232.97 25.9999C233.27 25.9999 233.485 25.8946 233.615 25.7061V25.9583H234.066V24.9495ZM232.392 24.9495C232.392 24.5921 232.627 24.2982 233.015 24.2982C233.38 24.2982 233.638 24.5725 233.638 24.9495C233.638 25.307 233.38 25.6008 233.015 25.6008C232.627 25.5788 232.392 25.3046 232.392 24.9495Z" fill="#4A5568"/>
<path d="M242.873 8.61865H236.107V20.5132H242.873V8.61865Z" fill="#626C7E"/>
<path d="M236.558 14.5657C236.558 12.1491 237.719 10.0043 239.5 8.61843C238.189 7.60966 236.535 7 234.731 7C230.458 7 227 10.3838 227 14.5657C227 18.7477 230.458 22.1314 234.731 22.1314C236.535 22.1314 238.189 21.5218 239.5 20.513C237.716 19.1468 236.558 16.9823 236.558 14.5657Z" fill="#4A5568"/>
<path d="M252 14.5657C252 18.7477 248.542 22.1314 244.269 22.1314C242.465 22.1314 240.811 21.5218 239.5 20.513C241.304 19.1247 242.442 16.9823 242.442 14.5657C242.442 12.1491 241.281 10.0043 239.5 8.61843C240.809 7.60966 242.462 7 244.266 7C248.542 7 252 10.4058 252 14.5657Z" fill="#4A5568"/>
</g>
<rect x="280" width="58" height="34" rx="4" fill="#F7F7F7"/>
<path d="M296.133 24.1962V17.6187H303.097L303.845 18.5927L304.616 17.6187H329.896V23.7426C329.896 23.7426 329.235 24.1897 328.47 24.1962H314.472L313.63 23.1594V24.1962H310.869V22.4263C310.869 22.4263 310.492 22.6734 309.677 22.6734H308.737V24.1962H304.557L303.811 23.2013L303.054 24.1962H296.133Z" fill="white"/>
<path d="M288 12.6614L289.571 9H292.287L293.178 11.051V9H296.554L297.085 10.4824L297.599 9H312.755V9.74524C312.755 9.74524 313.552 9 314.861 9L319.779 9.01719L320.655 11.0413V9H323.48L324.258 10.1627V9H327.109V15.5776H324.258L323.513 14.4111V15.5776H319.361L318.944 14.5407H317.828L317.417 15.5776H314.602C313.475 15.5776 312.755 14.8476 312.755 14.8476V15.5776H308.51L307.668 14.5407V15.5776H291.884L291.467 14.5407H290.355L289.94 15.5776H288V12.6614Z" fill="white"/>
<path d="M290.126 9.81104L288.008 14.7361H289.387L289.778 13.7499H292.05L292.439 14.7361H293.849L291.732 9.81104H290.126ZM290.91 10.9573L291.603 12.6806H290.215L290.91 10.9573Z" fill="#4A5568"/>
<path d="M293.994 14.7352V9.81006L295.954 9.81734L297.094 12.9927L298.207 9.81006H300.151V14.7352H298.919V11.1061L297.614 14.7352H296.534L295.226 11.1061V14.7352H293.994Z" fill="#4A5568"/>
<path d="M300.993 14.7352V9.81006H305.011V10.9117H302.237V11.7542H304.946V12.791H302.237V13.6659H305.011V14.7352H300.993Z" fill="#4A5568"/>
<path d="M305.724 9.81104V14.7361H306.955V12.9864H307.474L308.95 14.7361H310.455L308.834 12.9216C309.499 12.8655 310.185 12.2948 310.185 11.4089C310.185 10.3724 309.372 9.81104 308.464 9.81104H305.724ZM306.955 10.9127H308.363C308.7 10.9127 308.946 11.1768 308.946 11.4311C308.946 11.7583 308.628 11.9496 308.381 11.9496H306.955V10.9127Z" fill="#4A5568"/>
<path d="M311.945 14.7352H310.688V9.81006H311.945V14.7352Z" fill="#4A5568"/>
<path d="M314.926 14.7352H314.655C313.342 14.7352 312.544 13.7007 312.544 12.2929C312.544 10.8502 313.333 9.81006 314.991 9.81006H316.352V10.9765H314.941C314.268 10.9765 313.792 11.5018 313.792 12.305C313.792 13.2588 314.336 13.6594 315.12 13.6594H315.444L314.926 14.7352Z" fill="#4A5568"/>
<path d="M317.605 9.81104L315.487 14.7361H316.866L317.257 13.7499H319.529L319.918 14.7361H321.327L319.211 9.81104H317.605ZM318.389 10.9573L319.082 12.6806H317.694L318.389 10.9573Z" fill="#4A5568"/>
<path d="M321.471 14.7352V9.81006H323.037L325.035 12.9044V9.81006H326.267V14.7352H324.752L322.702 11.5598V14.7352H321.471Z" fill="#4A5568"/>
<path d="M296.975 23.3543V18.4292H300.993V19.5309H298.22V20.3733H300.928V21.4102H298.22V22.285H300.993V23.3543H296.975Z" fill="#4A5568"/>
<path d="M316.663 23.3543V18.4292H320.681V19.5309H317.907V20.3733H320.603V21.4102H317.907V22.285H320.681V23.3543H316.663Z" fill="#4A5568"/>
<path d="M301.149 23.3543L303.105 20.9221L301.103 18.4292H302.654L303.847 19.9703L305.043 18.4292H306.534L304.557 20.8917L306.517 23.3543H304.966L303.808 21.8375L302.678 23.3543H301.149Z" fill="#4A5568"/>
<path d="M306.664 18.4297V23.3548H307.927V21.7995H309.223C310.32 21.7995 311.151 21.2177 311.151 20.0862C311.151 19.1489 310.499 18.4297 309.383 18.4297H306.664ZM307.927 19.5435H309.292C309.646 19.5435 309.9 19.7606 309.9 20.1105C309.9 20.4392 309.648 20.6776 309.288 20.6776H307.927V19.5435Z" fill="#4A5568"/>
<path d="M311.686 18.4292V23.3543H312.917V21.6046H313.435L314.912 23.3543H316.416L314.796 21.5398C315.461 21.4837 316.147 20.913 316.147 20.027C316.147 18.9906 315.334 18.4292 314.426 18.4292H311.686ZM312.917 19.5309H314.325C314.662 19.5309 314.908 19.795 314.908 20.0493C314.908 20.3765 314.59 20.5677 314.343 20.5677H312.917V19.5309Z" fill="#4A5568"/>
<path d="M321.251 23.3543V22.285H323.715C324.08 22.285 324.238 22.088 324.238 21.8719C324.238 21.6649 324.08 21.4555 323.715 21.4555H322.602C321.634 21.4555 321.095 20.8658 321.095 19.9804C321.095 19.1907 321.588 18.4292 323.027 18.4292H325.424L324.906 19.5373H322.832C322.436 19.5373 322.314 19.7454 322.314 19.944C322.314 20.1482 322.464 20.3733 322.767 20.3733H323.934C325.013 20.3733 325.481 20.9854 325.481 21.7869C325.481 22.6485 324.959 23.3543 323.875 23.3543H321.251Z" fill="#4A5568"/>
<path d="M325.77 23.3543V22.285H328.234C328.599 22.285 328.757 22.088 328.757 21.8719C328.757 21.6649 328.599 21.4555 328.234 21.4555H327.121C326.153 21.4555 325.614 20.8658 325.614 19.9804C325.614 19.1907 326.107 18.4292 327.546 18.4292H329.943L329.425 19.5373H327.351C326.955 19.5373 326.833 19.7454 326.833 19.944C326.833 20.1482 326.984 20.3733 327.286 20.3733H328.453C329.532 20.3733 330 20.9854 330 21.7869C330 22.6485 329.478 23.3543 328.394 23.3543H325.77Z" fill="#4A5568"/>
<defs>
<clipPath id="clip0_787_151">
<rect width="34" height="11" fill="white" transform="translate(82 11)"/>
</clipPath>
<clipPath id="clip1_787_151">
<rect width="36" height="15" fill="white" transform="translate(151 9)"/>
</clipPath>
<clipPath id="clip2_787_151">
<rect width="25" height="19" fill="white" transform="translate(227 7)"/>
</clipPath>
</defs>
</svg>
